HIERARCHY
ROOT RootJoint
{
    OFFSET   0.000000   0.000000   0.000000
    CHANNELS 6 Xposition Yposition Zposition Xrotation Yrotation Zrotation
    JOINT pelvis_lowerback
    {
        OFFSET   0.000000   0.093605   0.000000
        CHANNELS 3 Xrotation Yrotation Zrotation
        JOINT lowerback_torso
        {
            OFFSET   0.000000   0.100000   0.000000
            CHANNELS 3 Xrotation Yrotation Zrotation
            JOINT torso_head
            {
                OFFSET   0.000000   0.282350   0.000000
                CHANNELS 3 Xrotation Yrotation Zrotation
                End Site
                {
                    OFFSET   0.000000   0.192650   0.000000
                }
            }
            JOINT rTorso_Clavicle
            {
                OFFSET  -0.001000   0.157500   0.000000
                CHANNELS 3 Xrotation Yrotation Zrotation
                JOINT rShoulder
                {
                    OFFSET  -0.117647   0.000000   0.000000
                    CHANNELS 3 Xrotation Yrotation Zrotation
                    JOINT rElbow
                    {
                        OFFSET  -0.245000   0.000000   0.000000
                        CHANNELS 3 Xrotation Yrotation Zrotation
                        JOINT rWrist
                        {
                            OFFSET  -0.240000   0.000000   0.000000
                            CHANNELS 3 Xrotation Yrotation Zrotation
                            End Site
                            {
                                OFFSET  -0.116353  -0.002500   0.000000
                            }
                        }
                    }
                }
            }
            JOINT lTorso_Clavicle
            {
                OFFSET   0.001000   0.157500   0.000000
                CHANNELS 3 Xrotation Yrotation Zrotation
                JOINT lShoulder
                {
                    OFFSET   0.117647   0.000000   0.000000
                    CHANNELS 3 Xrotation Yrotation Zrotation
                    JOINT lElbow
                    {
                        OFFSET   0.245000   0.000000   0.000000
                        CHANNELS 3 Xrotation Yrotation Zrotation
                        JOINT lWrist
                        {
                            OFFSET   0.240000   0.000000   0.000000
                            CHANNELS 3 Xrotation Yrotation Zrotation
                            End Site
                            {
                                OFFSET   0.116353  -0.002500   0.000000
                            }
                        }
                    }
                }
            }
        }
    }
    JOINT rHip
    {
        OFFSET  -0.100000  -0.051395   0.000000
        CHANNELS 3 Xrotation Yrotation Zrotation
        JOINT rKnee
        {
            OFFSET   0.000000  -0.410000   0.000000
            CHANNELS 3 Xrotation Yrotation Zrotation
            JOINT rAnkle
            {
                OFFSET   0.000000  -0.390000   0.000000
                CHANNELS 3 Xrotation Yrotation Zrotation
                JOINT rToeJoint
                {
                    OFFSET   0.000000  -0.050000   0.130000
                    CHANNELS 3 Xrotation Yrotation Zrotation
                    End Site
                    {
                        OFFSET  -0.010000   0.002000   0.060000
                    }
                }
            }
        }
    }
    JOINT lHip
    {
        OFFSET   0.100000  -0.051395   0.000000
        CHANNELS 3 Xrotation Yrotation Zrotation
        JOINT lKnee
        {
            OFFSET   0.000000  -0.410000   0.000000
            CHANNELS 3 Xrotation Yrotation Zrotation
            JOINT lAnkle
            {
                OFFSET   0.000000  -0.390000   0.000000
                CHANNELS 3 Xrotation Yrotation Zrotation
                JOINT lToeJoint
                {
                    OFFSET   0.000000  -0.050000   0.130000
                    CHANNELS 3 Xrotation Yrotation Zrotation
                    End Site
                    {
                        OFFSET   0.010000   0.002000   0.060000
                    }
                }
            }
        }
    }
}
MOTION
Frames: 15
Frame Time:   0.008333
 -2.292950   0.891022   4.297793 -175.291042  30.670045 178.839530  10.479376  -6.247684  -1.510851   5.507755  -5.237726  -2.505581   3.826198  -1.508235  -1.316349   5.656529  -3.256537  -6.468103  24.262206   6.035332  40.175370 -179.909181  80.868848 179.903842   2.161837   3.571289   0.849268  -2.357707  -7.941919  -0.627711 -10.819829 -10.048015 -39.129291   0.078986 -85.051948   0.069033  -1.135838  -5.537973  11.489218 -18.976159  -5.442325  -7.626312  24.419531   0.003707  -0.004164  -1.042422 -10.043416   0.471636   0.002068  -0.000253   0.001300  -0.593690   1.430144   5.786217  36.905644  -0.011819   0.018318 -16.822476   1.981480  -0.197047 -10.808912  -0.003453  -0.003198
 -2.287397   0.891530   4.296013 -175.305059  30.729112 178.113507  10.488548  -6.161613  -1.170141   5.499255  -5.276564  -2.254564   3.796912  -1.562792  -1.176718   5.487904  -3.252921  -6.482370  23.320266   6.100953  40.164169 -179.900768  80.234259 179.895315   2.201399   3.337928   0.884729  -2.047202  -7.777593  -0.703604  -9.886923 -10.042427 -39.933556   0.048805 -84.911504   0.042282  -0.933859  -5.706174  11.389807 -18.381320  -5.570686  -6.572621  24.060827   0.003657  -0.004007  -1.210326  -9.952205   0.191799  -0.094539  -0.000261   0.000778  -1.607186   1.608218   6.920099  39.500715  -0.011940   0.024664 -16.121239   2.222642  -0.195183  -9.892145  -0.006430   0.001767
 -2.282070   0.891902   4.294266 -175.272270  30.853668 177.390168  10.524640  -6.037197  -0.858870   5.515709  -5.271430  -2.007276   3.764536  -1.617653  -1.025444   5.276750  -3.201623  -6.476487  22.381034   6.199457  40.162537 -179.897809  79.605594 179.892245   2.237609   3.281487   0.762514  -1.684306  -7.602311  -0.830367  -8.949412 -10.022205 -40.720212   0.022563 -84.739760   0.019164  -0.778553  -5.676340  11.159847 -17.782082  -5.671907  -5.546981  23.717487   0.003605  -0.003643  -1.383610  -9.844120  -0.056637  -0.158277  -0.000224   0.000479  -2.602629   1.772193   8.012878  42.076292  -0.011659   0.028685 -15.451806   2.453939  -0.195671  -9.014372  -0.008345   0.005303
 -2.276989   0.892168   4.292552 -175.211336  31.014326 176.694808  10.575939  -5.883464  -0.575080   5.551316  -5.227188  -1.785072   3.733007  -1.669684  -0.879514   5.061097  -3.123994  -6.455418  21.482204   6.311975  40.166950 -179.900454  79.008598 179.894792   2.270674   3.314166   0.594421  -1.308966  -7.423420  -0.987697  -8.041603 -10.001470 -41.475927   0.003040 -84.564084   0.002183  -0.651475  -5.541080  10.857672 -17.200778  -5.762526  -4.573806  23.404759   0.003513  -0.003143  -1.566264  -9.737332  -0.283769  -0.196880  -0.000179   0.000319  -3.557477   1.904277   9.040703  44.502581  -0.011005   0.030411 -14.825790   2.670220  -0.198380  -8.209918  -0.009292   0.007519
 -2.272155   0.892349   4.290887 -175.131692  31.187560 176.029994  10.640279  -5.711028  -0.314432   5.601157  -5.156647  -1.586251   3.703480  -1.718245  -0.742288   4.852178  -3.033628  -6.426419  20.633309   6.428608  40.174938 -179.906671  78.447697 179.900940   2.301791   3.382464   0.424301  -0.938127  -7.245383  -1.158037  -7.175920  -9.984259 -42.193536  -0.010496 -84.392295  -0.009401  -0.539913  -5.357831  10.528323 -16.640256  -5.844248  -3.655193  23.121305   0.003371  -0.002627  -1.753829  -9.635642  -0.493522  -0.219470  -0.000141   0.000226  -4.477121   2.006032  10.006003  46.764900  -0.009987   0.030681 -14.241782   2.872200  -0.202761  -7.474830  -0.009541   0.008844
 -2.267566   0.892462   4.289269 -175.037937  31.361728 175.394421  10.715189  -5.527267  -0.074406   5.661982  -5.068770  -1.407192   3.676765  -1.763358  -0.614154   4.653969  -2.938222  -6.394141  19.836264   6.544077  40.184914 -179.914750  77.922907 179.908995   2.331533   3.463036   0.264859  -0.579735  -7.070441  -1.330733  -6.356862  -9.971571 -42.869754  -0.019313 -84.227465  -0.016787  -0.437701  -5.153611  10.194048 -16.099867  -5.917330  -2.789278  22.864234   0.003186  -0.002149  -1.941865  -9.539493  -0.687830  -0.233420  -0.000110   0.000166  -5.364103   2.081081  10.911710  48.868030  -0.008690   0.030012 -13.697266   3.060850  -0.208438  -6.803393  -0.009304   0.009549
 -2.263214   0.892524   4.287695 -174.932927  31.531866 174.786106  10.797582  -5.337283   0.146810   5.730835  -4.969536  -1.244878   3.653156  -1.805207  -0.494826   4.467840  -2.842185  -6.361187  19.090199   6.655642  40.195964 -179.923512  77.432851 179.917791   2.360130   3.545682   0.119131  -0.237475  -6.899778  -1.499762  -5.585342  -9.963299 -43.503934  -0.024600 -84.070858  -0.021079  -0.341798  -4.941591   9.865703 -15.578671  -5.982228  -1.973102  22.630915   0.002973  -0.001728  -2.126928  -9.448757  -0.868111  -0.244244  -0.000085   0.000124  -6.218444   2.133178  11.759963  50.821148  -0.007233   0.028708 -13.189659   3.237045  -0.215142  -6.190196  -0.008742   0.009802
 -2.259101   0.892581   4.286307 -174.915370  31.715480 174.149911  10.892957  -5.184213   0.414520   5.703880  -4.934942  -0.984802   3.544583  -1.867335  -0.345261   4.189834  -2.743360  -6.351173  18.001855   7.007098  40.362010 -179.923815  76.885628 179.918826   2.443108   3.339179   0.075175   0.150542  -6.657160  -1.533023  -4.662581  -9.810651 -44.373818  -0.046447 -83.648912  -0.039343  -0.141306  -5.021972   9.640997 -15.016142  -5.921282  -1.087495  22.137569   0.002997  -0.001894  -2.245123  -9.154280  -1.072939  -0.129087  -0.000026   0.000514  -7.279314   2.249402  12.679856  52.772325  -0.004319   0.028719 -13.092864   3.567677  -0.204540  -5.837610  -0.007524   0.009856
 -2.255256   0.892578   4.284954 -174.888083  31.930608 173.527745  10.999153  -5.003101   0.671926   5.676729  -4.855128  -0.712417   3.431696  -1.932807  -0.191426   3.880710  -2.592661  -6.305172  16.925863   7.380381  40.546401 -179.926097  76.344940 179.921874   2.521994   3.277344  -0.091933   0.567494  -6.405563  -1.588790  -3.747453  -9.654898 -45.204077  -0.060956 -83.217318  -0.051046   0.018877  -4.911939   9.344946 -14.452399  -5.846553  -0.232840  21.608097   0.003045  -0.001869  -2.353573  -8.854318  -1.249122   0.031897   0.000002   0.000937  -8.358205   2.344566  13.526127  54.585906  -0.001607   0.027196 -13.008096   3.878836  -0.194304  -5.551209  -0.006292   0.009341
 -2.251703   0.892611   4.283600 -174.807352  32.263758 172.891251  11.129275  -4.750633   0.922627   5.670991  -4.704005  -0.452121   3.324292  -1.993707  -0.045375   3.570323  -2.402953  -6.238271  15.891708   7.756757  40.732755 -179.930624  75.831835 179.927147   2.596988   3.296665  -0.283913   0.984345  -6.146262  -1.663046  -2.865493  -9.504078 -45.989052  -0.068708 -82.799884  -0.056886   0.156214  -4.707347   9.027761 -13.940887  -5.889731   0.610893  21.172558   0.003259  -0.000860  -2.339103  -8.684198  -1.395404  -0.001126   0.000018   0.000749  -9.383566   2.436758  14.294080  56.258494  -0.000030   0.023657 -12.929682   4.169068  -0.185402  -5.289594  -0.005217   0.008448
 -2.248379   0.892605   4.282195 -174.690111  32.607148 172.264052  11.263630  -4.483611   1.163392   5.683512  -4.525339  -0.201467   3.226965  -2.050996   0.092867   3.274153  -2.204777  -6.165305  14.915113   8.120146  40.917694 -179.936293  75.348087 179.933471   2.668036   3.357733  -0.459979   1.390371  -5.887564  -1.740844  -2.024732  -9.364500 -46.727711  -0.070965 -82.404486  -0.058052   0.281380  -4.465947   8.699505 -13.423971  -5.907419   1.407916  20.763274   0.003316  -0.000038  -2.332876  -8.500266  -1.543840  -0.026074   0.000023   0.000599 -10.383671   2.498285  14.984225  57.810269   0.001246   0.019809 -12.857334   4.439396  -0.176999  -5.052605  -0.004250   0.007487
 -2.245254   0.892556   4.280743 -174.542349  32.941349 171.643376  11.399196  -4.209680   1.397819   5.707637  -4.333115   0.041018   3.138227  -2.104493   0.223239   2.995841  -2.008958  -6.090675  13.998376   8.463920  41.098490 -179.942368  74.895111 179.940102   2.735766   3.434086  -0.615649   1.778865  -5.633894  -1.817530  -1.229388  -9.236768 -47.419599  -0.069439 -82.032431  -0.056082   0.399238  -4.213073   8.374835 -12.904082  -5.908020   2.162273  20.384967   0.003246   0.000574  -2.337994  -8.316202  -1.682237  -0.046306   0.000024   0.000479 -11.361018   2.536686  15.612880  59.245756   0.002384   0.016167 -12.790608   4.691353  -0.169217  -4.837532  -0.003386   0.006563
 -2.242310   0.892466   4.279244 -174.367841  33.260976 171.028443  11.532454  -3.934079   1.625327   5.738985  -4.134420   0.275602   3.057178  -2.154278   0.345927   2.736079  -1.820023  -6.016607  13.140174   8.786235  41.273902 -179.948358  74.472210 179.946554   2.800460   3.513072  -0.752083   2.147137  -5.387199  -1.890077  -0.480192  -9.120250 -48.065815  -0.065544 -81.683605  -0.052228   0.511888  -3.960230   8.062449 -12.383275  -5.895638   2.876932  20.038592   0.003086   0.001004  -2.355927  -8.135495  -1.810496  -0.062650   0.000023   0.000383 -12.312413   2.556499  16.187607  60.571472   0.003391   0.012869 -12.729092   4.926264  -0.162065  -4.642112  -0.002626   0.005706
 -2.239694   0.892483   4.277821 -174.362068  33.740389 170.527095  11.559607  -3.675361   1.822835   5.657534  -3.939339   0.516343   3.004872  -2.214203   0.484230   2.479619  -1.600628  -5.965936  12.149433   9.312334  41.594808 -179.952670  74.106535 179.951731   2.874071   3.469571  -0.875358   2.556172  -5.045903  -1.836832   0.481989  -8.972272 -48.804898  -0.064329 -81.361712  -0.051403   0.622958  -3.819089   7.881516 -12.003359  -5.850478   3.556613  19.559272   0.003129   0.002074  -2.240024  -7.831057  -1.832084  -0.100163   0.000059   0.000306 -13.316287   2.544630  16.663892  61.468668   0.002869   0.008824 -12.874666   5.153645  -0.130124  -4.625295  -0.002094   0.004574
 -2.237364   0.892493   4.276427 -174.363122  34.266361 170.042383  11.587177  -3.409614   2.019964   5.568235  -3.716840   0.764276   2.948930  -2.276207   0.618443   2.217269  -1.357534  -5.899608  11.191160   9.829415  41.920600 -179.956660  73.751548 179.956534   2.943482   3.487758  -1.033049   2.977594  -4.696243  -1.780583   1.420595  -8.829743 -49.501223  -0.062145 -81.053572  -0.049832   0.724334  -3.641407   7.638817 -11.645671  -5.772990   4.211022  19.053908   0.003133   0.003122  -2.089633  -7.499737  -1.849647  -0.134000   0.000081   0.000245 -14.308796   2.498985  17.083754  62.206268   0.002154   0.005318 -13.017392   5.365070  -0.098729  -4.629045  -0.001674   0.003662
